<?xml version="1.0" encoding="utf-8"?>
<!-- Generator: Adobe Illustrator 26.0.2, SVG Export Plug-In . SVG Version: 6.00 Build 0)  -->
<svg version="1.1" id="Layer_1" xmlns="http://www.w3.org/2000/svg" xmlns:xlink="http://www.w3.org/1999/xlink" x="0px" y="0px"
	 viewBox="0 0 3796.01 1535" style="enable-background:new 0 0 3796.01 1535;" xml:space="preserve">
<style type="text/css">
	.st0{fill:#403A2F;}
</style>
<path class="st0" d="M3796.01,1353.06V182h0.15c-0.61-2.1-1.38-3.72-2.49-4.35c-4.44-2.51-9.51-2.9-13.91-5.33
	c-4.46-2.47,1.13-35.79-3.29-38.18c-4.47-2.42-21.67,35.09-26.1,32.75c-4.49-2.38,1.71-38.92-2.73-41.22
	c-4.5-2.33-10.6,0.33-15.05-1.92c-4.52-2.28-13.95,12.02-18.42,9.82c-4.53-2.23-4.42-20.51-8.91-22.66
	c-4.55-2.18-12.55,7.9-17.06,5.81c-4.56-2.12-8.43-6.69-12.95-8.74c-4.58-2.07-6.36-14.77-10.9-16.76
	c-4.59-2.01-15.5,20.7-20.05,18.78c-4.61-1.95-6.81-13.19-11.38-15.06c-4.62-1.89-7.95-9.07-12.52-10.88
	c-4.64-1.83-12.95,12.64-17.54,10.89c-4.65-1.77-9.32-2.76-13.92-4.44c-4.67-1.7-3.45-30.94-8.07-32.55
	c-4.68-1.63-12.21,10.63-16.84,9.09c-4.7-1.56-11.39,7.69-16.04,6.21c-4.71-1.49-9.84,0.15-14.5-1.24
	c-4.72-1.42-6.72-17.96-11.39-19.28c-4.74-1.34-9.29-3.71-13.97-4.95c-4.75-1.26-12.05,14.78-16.75,13.62
	c-4.76-1.19-7.85-13.09-12.56-14.18c-4.77-1.1-6.49-25.62-11.21-26.63c-4.78-1.02-13.03,26.27-17.77,25.35
	c-4.79-0.94-7.54-19.99-12.28-20.83c-4.8-0.85-10.96,12-15.72,11.24c-4.81-0.76-7.38-27.31-12.14-27.98
	c-4.82-0.67-10.05,1.58-14.82,1.01c-4.82-0.59-11.02,18.56-15.8,18.07c-4.83-0.49-9.2-9.17-13.98-9.56
	c-4.83-0.4-9.38-9.4-14.17-9.71c-4.83-0.31-10.61,28.61-15.4,28.4c-4.84-0.22-9.47-1.89-14.26-2.02
	c-4.84-0.13-9.36-34.52-14.15-34.55c-4.84-0.04-9.64,38.53-14.43,38.58c-4.84,0.05-9.69-12.7-14.49-12.55
	c-4.83,0.15-9.87-8.78-14.66-8.55c-4.83,0.23-9.35,9.18-14.14,9.5c-4.83,0.32-10.02-7.75-14.81-7.35
	c-4.82,0.41-8.69,17.08-13.47,17.57c-4.82,0.49-9.42,2.14-14.2,2.71c-4.81,0.57-10.07-6.15-14.85-5.5
	c-4.8,0.65-11.17-16.72-15.95-15.99c-4.79,0.73-10.72-8.84-15.49-8.04c-4.79,0.8-7.16,25.63-11.92,26.5
	c-4.78,0.87-8.16,13.5-12.92,14.43c-4.77,0.94-9.3,2.92-14.05,3.91c-4.76,1-12.87-24.12-17.61-23.06
	c-4.75,1.06-10.65-5.52-15.39-4.41c-4.74,1.11-5.43,30.86-10.16,32.02c-4.73,1.16-11.08-8.64-15.8-7.43
	c-4.73,1.21-11.08-7.85-15.8-6.6s-6.67,19.9-11.38,21.18c-4.71,1.29-11.44-9.64-16.15-8.32c-4.7,1.32-8.43,8.59-13.13,9.94
	c-4.7,1.35-6.48,19.55-11.18,20.92c-4.69,1.37-12.54-15.33-17.23-13.95c-4.69,1.39-6.59,18.49-11.29,19.89
	c-4.69,1.4-10.15-1.6-14.84-0.19c-4.68,1.41-14.9-27.95-19.6-26.53c-4.68,1.41-3.26,36.77-7.96,38.19
	c-4.68,1.41-8.86,5.72-13.55,7.14c-4.68,1.41-10.52-3.54-15.22-2.13c-4.68,1.4-6.7,17.99-11.4,19.38
	c-4.68,1.39-17.08-41.04-21.78-39.66c-4.68,1.37-4.02,33.6-8.73,34.96c-4.69,1.35-10.67-4.71-15.38-3.38
	c-4.69,1.33-10.08-1.47-14.8-0.16c-4.69,1.3-12.06-13.99-16.79-12.72c-4.7,1.27-9.92-1.21-14.65,0.03
	c-4.7,1.24-7.15,16.73-11.89,17.94c-4.71,1.2-10.89-7.86-15.64-6.7c-4.72,1.16-6.39,23.34-11.15,24.46
	c-4.72,1.11-10.62-6.33-15.38-5.26c-4.73,1.07-9.39,2.49-14.16,3.51c-4.73,1.02-11-10.77-15.77-9.8
	c-4.74,0.96-6.53,26.76-11.31,27.68c-4.74,0.91-10.17-3.93-14.96-3.07c-4.12,0.74-6.62,17.82-10.34,22.89h-5.24
	c-4.11-3.4-8.73-11.7-12.45-11.12c-4.76,0.74-11.57-21.82-16.38-21.14c-4.34,0.62-6.62,27.1-10.63,32.26h-2.92
	c-4.62-4.75-10.57-27.5-14.84-27c-4.77,0.55-9.97-7.42-14.79-6.93c-4.77,0.49-9.1,6.52-13.93,6.95c-4.78,0.42-9.3,4.19-14.13,4.55
	c-2.83,0.21-5.2,12.44-7.67,22.44h-12.32c-2.93-8.32-5.9-17.59-8.56-17.46c-4.79,0.22-9.41,5.98-14.24,6.14
	c-4.79,0.16-9.48,7.55-14.32,7.65c-1.85,0.04-3.71,1.68-5.57,3.68h-27.53c-3.29-10.98-6.52-29.84-9.95-29.92
	c-4.79-0.11-9.97,25.89-14.81,25.71c-4.79-0.17-8.82-27.28-13.66-27.53c-4.78-0.24-9.54,3.26-14.38,2.95
	c-4.78-0.3-9.21-5.43-14.04-5.8c-4.78-0.37-10.9,27.44-15.73,27.01c-4.78-0.43-8.72-15.22-13.55-15.71
	c-3.14-0.32-7.25,13.76-11.06,23.29h-9.01c-2.56-12.45-4.45-34.2-7.91-34.64c-4.76-0.62-9.55,0.42-14.36-0.26
	c-4.76-0.68-12.09,27.75-16.9,27c-4.75-0.73-8.92-8.56-13.72-9.36c-4.75-0.79-7.75-18.48-12.55-19.34
	c-4.74-0.85-10.16,4.78-14.95,3.87c-4.74-0.9-8.72-7.9-13.51-8.87c-4.73-0.96-9.03-4.85-13.81-5.87
	c-4.72-1.01-14.15,33.45-18.92,32.37c-4.72-1.07-5.98-27.72-10.74-28.85c-4.71-1.12-8.77-6.61-13.52-7.79
	c-4.7-1.17-10.32,3.76-15.07,2.52c-4.69-1.22-13.41,22.43-18.15,21.14c-4.68-1.27-7.83-12.7-12.57-14.03
	c-4.68-1.32-3.79-35.26-8.51-36.63c-4.67-1.36-13.25,19.57-17.97,18.15c-4.66-1.41-9.17-3.86-13.88-5.33
	c-4.66-1.45-6.08-19.9-10.78-21.42c-4.65-1.5-16.23,32.41-20.92,30.86c-4.64-1.54-4.47-27.37-9.15-28.97
	c-4.63-1.58-7.34-12.35-12.01-13.99c-4.62-1.62-11.82,9.01-16.49,7.33c-4.61-1.66-8.44-6.97-13.1-8.7
	c-4.61-1.7-14.41,19.64-19.06,17.88c-4.6-1.74-3.52-28.57-8.15-30.36c-4.59-1.78-15.39,22.82-20.02,20.98
	c-4.58-1.82-2.47-31.89-7.09-33.76c-4.57-1.85-13.18,12.77-17.79,10.86c-4.56-1.89-4.71-21.62-9.31-23.56
	c-4.56-1.92-15.61,21.61-20.2,19.64c-4.55-1.96-5.12-19.52-9.7-21.53c-4.54-1.99-4.73-20.45-9.31-22.49
	c-3.99-1.82-15.64,24.89-21.48,29.87c-5.84-4.98-17.49-31.69-21.48-29.87c-4.58,2.04-4.77,20.5-9.31,22.49
	c-4.58,2.01-5.15,19.57-9.7,21.53c-4.59,1.97-15.64-21.56-20.2-19.64c-4.6,1.94-4.75,21.67-9.31,23.56
	c-4.61,1.91-13.22-12.71-17.79-10.86c-4.62,1.87-2.51,31.94-7.09,33.76c-4.63,1.84-15.43-22.76-20.02-20.98
	c-4.63,1.79-3.55,28.62-8.15,30.36c-4.65,1.76-14.45-19.58-19.06-17.88c-4.66,1.73-8.49,7.04-13.1,8.7
	c-4.67,1.68-11.87-8.95-16.49-7.33c-4.67,1.64-7.38,12.41-12.01,13.99c-4.68,1.6-4.51,27.43-9.15,28.97
	c-4.69,1.55-16.27-32.36-20.92-30.86c-4.7,1.52-6.12,19.97-10.78,21.42c-4.71,1.47-9.22,3.92-13.88,5.33
	c-4.72,1.42-13.3-19.51-17.97-18.15c-4.72,1.37-3.83,35.31-8.51,36.63c-4.74,1.33-7.89,12.76-12.57,14.03
	c-4.74,1.29-13.46-22.36-18.15-21.14c-4.75,1.24-10.37-3.69-15.07-2.52c-4.75,1.18-8.81,6.67-13.52,7.79
	c-4.76,1.13-6.02,27.78-10.74,28.85c-4.77,1.08-14.2-33.38-18.92-32.37c-4.78,1.02-9.08,4.91-13.81,5.87
	c-4.79,0.97-8.77,7.97-13.51,8.87c-4.79,0.91-10.21-4.72-14.95-3.87c-4.8,0.86-7.8,18.55-12.55,19.34c-4.8,0.8-8.97,8.63-13.72,9.36
	c-4.81,0.75-12.14-27.68-16.9-27c-4.81,0.68-9.6-0.36-14.36,0.26c-3.46,0.44-5.35,22.19-7.91,34.64h-9.01
	c-3.81-9.53-7.92-23.61-11.06-23.29c-4.83,0.49-8.77,15.28-13.55,15.71c-4.83,0.43-10.95-27.38-15.73-27.01
	c-4.83,0.37-9.26,5.5-14.04,5.8c-4.84,0.31-9.6-3.19-14.38-2.95c-4.84,0.25-8.87,27.36-13.66,27.53
	c-4.84,0.18-10.02-25.82-14.81-25.71c-3.43,0.08-6.66,18.94-9.95,29.92h-27.53c-1.86-2-3.72-3.64-5.57-3.68
	c-4.84-0.1-9.53-7.49-14.32-7.65c-4.83-0.16-9.45-5.92-14.24-6.14c-2.66-0.13-5.63,9.14-8.56,17.46h-12.32
	c-2.47-10-4.84-22.23-7.67-22.44c-4.83-0.36-9.35-4.13-14.13-4.55c-4.83-0.43-9.16-6.46-13.93-6.95
	c-4.82-0.49-10.02,7.48-14.79,6.93c-4.27-0.5-10.22,22.25-14.84,27h-2.92c-4.01-5.16-6.29-31.64-10.63-32.26
	c-4.81-0.68-11.62,21.88-16.38,21.14c-3.72-0.58-8.34,7.72-12.45,11.12h-5.24c-3.72-5.07-6.22-22.15-10.34-22.89
	c-4.79-0.86-10.22,3.98-14.96,3.07c-4.78-0.92-6.57-26.72-11.31-27.68c-4.77-0.97-11.04,10.82-15.77,9.8
	c-4.77-1.02-9.43-2.44-14.16-3.51c-4.76-1.07-10.66,6.37-15.38,5.26c-4.76-1.12-6.43-23.3-11.15-24.46
	c-4.75-1.16-10.93,7.9-15.64,6.7c-4.74-1.21-7.19-16.7-11.89-17.94c-4.73-1.24-9.95,1.24-14.65-0.03
	c-4.73-1.27-12.1,14.02-16.79,12.72c-4.72-1.31-10.11,1.49-14.8,0.16c-4.71-1.33-10.69,4.73-15.38,3.38
	c-4.71-1.36-4.05-33.59-8.73-34.96c-4.7-1.38-17.1,41.05-21.78,39.66c-4.7-1.39-6.72-17.98-11.4-19.38
	c-4.7-1.41-10.54,3.54-15.22,2.13c-4.69-1.42-8.87-5.73-13.55-7.14c-4.7-1.42-3.28-36.78-7.96-38.19
	c-4.7-1.42-14.92,27.94-19.6,26.53c-4.69-1.41-10.15,1.59-14.84,0.19c-4.7-1.4-6.6-18.5-11.29-19.89
	c-4.69-1.38-12.54,15.32-17.23,13.95c-4.7-1.37-6.48-19.57-11.18-20.92c-4.7-1.35-8.43-8.62-13.13-9.94
	c-4.71-1.32-11.44,9.61-16.15,8.32c-4.71-1.28-6.66-19.93-11.38-21.18s-11.07,7.81-15.8,6.6c-4.72-1.21-11.07,8.59-15.8,7.43
	c-4.73-1.16-5.42-30.91-10.16-32.02c-4.74-1.11-10.64,5.47-15.39,4.41c-4.74-1.06-12.85,24.06-17.61,23.06
	c-4.75-0.99-9.28-2.97-14.05-3.91c-4.76-0.93-8.14-13.56-12.92-14.43c-4.76-0.87-7.13-25.7-11.92-26.5
	c-4.77-0.8-10.7,8.77-15.49,8.04c-4.78-0.73-11.15,16.64-15.95,15.99c-4.78-0.65-10.04,6.07-14.85,5.5
	c-4.78-0.57-9.38-2.22-14.2-2.71c-4.78-0.49-8.65-17.16-13.47-17.57c-4.79-0.4-9.98,7.67-14.81,7.35c-4.79-0.32-9.31-9.27-14.14-9.5
	c-4.79-0.23-9.83,8.7-14.66,8.55c-4.8-0.15-9.65,12.6-14.49,12.55c-4.79-0.05-9.59-38.62-14.43-38.58
	c-4.79,0.03-9.31,34.42-14.15,34.55c-4.79,0.13-9.42,1.8-14.26,2.02c-4.79,0.21-10.57-28.71-15.4-28.4
	c-4.79,0.31-9.34,9.31-14.17,9.71c-4.78,0.39-9.15,9.07-13.98,9.56c-4.78,0.49-10.98-18.66-15.8-18.07
	c-4.77,0.57-10-1.68-14.82-1.01c-4.76,0.67-7.33,27.22-12.14,27.98c-4.76,0.76-10.92-12.09-15.72-11.24
	c-4.74,0.84-7.49,19.89-12.28,20.83c-4.74,0.92-12.99-26.37-17.77-25.35c-4.72,1.01-6.44,25.53-11.21,26.63
	c-4.71,1.09-7.8,12.99-12.56,14.18c-4.7,1.16-12-14.88-16.75-13.62c-4.68,1.24-9.23,3.61-13.97,4.95
	c-4.67,1.32-6.67,17.86-11.39,19.28c-4.66,1.39-9.79-0.25-14.5,1.24c-4.65,1.48-11.34-7.77-16.04-6.21
	c-4.63,1.54-12.16-10.72-16.84-9.09c-4.62,1.61-3.4,30.85-8.07,32.55c-4.6,1.68-9.27,2.67-13.92,4.44
	c-4.59,1.75-12.9-12.72-17.54-10.89c-4.57,1.81-7.9,8.99-12.52,10.88c-4.57,1.87-6.77,13.11-11.38,15.06
	c-4.55,1.92-15.46-20.79-20.05-18.78c-4.54,1.99-6.32,14.69-10.9,16.76c-4.52,2.05-8.39,6.62-12.95,8.74
	c-4.51,2.09-12.51-7.99-17.06-5.81c-4.49,2.15-4.38,20.43-8.91,22.66c-4.47,2.2-13.9-12.1-18.42-9.82
	c-4.45,2.25-10.55-0.41-15.05,1.92c-4.44,2.3,1.76,38.84-2.73,41.22c-4.43,2.34-21.63-35.17-26.1-32.75
	c-4.42,2.39,1.17,35.71-3.29,38.18c-4.4,2.43-9.47,2.82-13.91,5.33c-1.11,0.63-1.88,2.25-2.49,4.35h0.15v1171.06h-0.15
	c0.6,2.1,1.38,3.72,2.49,4.35c4.44,2.51,9.51,2.89,13.91,5.33c4.46,2.47-1.12,35.79,3.29,38.18c4.47,2.42,21.67-35.1,26.1-32.75
	c4.49,2.37-1.71,38.92,2.73,41.22c4.5,2.33,10.59-0.33,15.05,1.92c4.51,2.28,13.95-12.02,18.42-9.82
	c4.54,2.23,4.42,20.51,8.91,22.66c4.55,2.18,12.56-7.91,17.06-5.81c4.57,2.13,8.43,6.7,12.95,8.74c4.58,2.07,6.37,14.77,10.9,16.76
	c4.59,2.01,15.5-20.71,20.05-18.78c4.61,1.95,6.82,13.19,11.38,15.06c4.62,1.9,7.94,9.07,12.52,10.88
	c4.64,1.84,12.95-12.63,17.54-10.89c4.65,1.77,9.32,2.76,13.92,4.44c4.67,1.7,3.45,30.94,8.07,32.55
	c4.68,1.63,12.21-10.63,16.84-9.09c4.7,1.57,11.39-7.68,16.04-6.21c4.71,1.49,9.84-0.16,14.5,1.24c4.72,1.41,6.72,17.96,11.39,19.28
	c4.73,1.34,9.28,3.7,13.97,4.95c4.75,1.26,12.05-14.79,16.75-13.62c4.76,1.18,7.85,13.09,12.56,14.18
	c4.77,1.11,6.49,25.62,11.21,26.63c4.79,1.02,13.04-26.27,17.77-25.35c4.79,0.94,7.54,19.99,12.28,20.83
	c4.81,0.85,10.97-11.99,15.72-11.24c4.81,0.76,7.38,27.31,12.14,27.98c4.82,0.67,10.05-1.59,14.82-1.01
	c4.82,0.58,11.03-18.56,15.8-18.07c4.82,0.49,9.2,9.16,13.98,9.56c4.83,0.41,9.39,9.4,14.17,9.71c4.84,0.31,10.61-28.62,15.4-28.4
	c4.84,0.22,9.47,1.89,14.26,2.02c4.84,0.13,9.36,34.51,14.15,34.55c4.84,0.04,9.64-38.53,14.43-38.58
	c4.84-0.06,9.7,12.69,14.49,12.55c4.83-0.14,9.87,8.78,14.66,8.55c4.83-0.23,9.35-9.18,14.14-9.5c4.83-0.32,10.02,7.75,14.81,7.35
	c4.82-0.41,8.69-17.08,13.47-17.57c4.81-0.5,9.42-2.14,14.2-2.71c4.81-0.57,10.07,6.15,14.85,5.5c4.81-0.65,11.18,16.71,15.95,15.99
	c4.79-0.73,10.72,8.84,15.49,8.04c4.79-0.8,7.16-25.63,11.92-26.5c4.78-0.87,8.17-13.5,12.92-14.43c4.77-0.93,9.3-2.91,14.05-3.91
	s12.87,24.12,17.61,23.06c4.75-1.06,10.66,5.52,15.39,4.41c4.75-1.12,5.43-30.86,10.16-32.02c4.73-1.16,11.08,8.64,15.8,7.43
	c4.73-1.2,11.08,7.85,15.8,6.6c4.72-1.25,6.67-19.9,11.38-21.19s11.44,9.64,16.15,8.32s8.43-8.59,13.13-9.94
	c4.7-1.35,6.48-19.55,11.18-20.92c4.69-1.36,12.53,15.34,17.23,13.95c4.69-1.38,6.59-18.49,11.29-19.89
	c4.68-1.4,10.15,1.6,14.84,0.19c4.69-1.41,14.91,27.95,19.6,26.53c4.69-1.41,3.27-36.77,7.96-38.19c4.68-1.42,8.85-5.72,13.55-7.14
	c4.68-1.41,10.52,3.54,15.22,2.13c4.68-1.4,6.7-17.98,11.4-19.38c4.68-1.39,17.08,41.04,21.78,39.66c4.69-1.37,4.02-33.6,8.73-34.96
	c4.68-1.35,10.67,4.72,15.38,3.38c4.69-1.33,10.08,1.47,14.8,0.16c4.69-1.3,12.07,14,16.79,12.72c4.7-1.27,9.92,1.21,14.65-0.03
	c4.7-1.24,7.15-16.74,11.89-17.94c4.71-1.2,10.89,7.86,15.64,6.7c4.72-1.16,6.4-23.34,11.15-24.46c4.72-1.11,10.62,6.33,15.38,5.26
	c4.73-1.06,9.39-2.49,14.16-3.51c4.73-1.02,11,10.77,15.77,9.8c4.73-0.96,6.53-26.76,11.31-27.68c4.74-0.91,10.17,3.93,14.96,3.07
	c4.12-0.74,6.62-17.82,10.34-22.89h5.24c4.11,3.41,8.73,11.7,12.45,11.12c4.76-0.74,11.57,21.82,16.38,21.14
	c4.34-0.62,6.62-27.1,10.63-32.26h2.92c4.62,4.74,10.57,27.49,14.84,27c4.77-0.55,9.97,7.42,14.79,6.93
	c4.78-0.49,9.1-6.52,13.93-6.95c4.78-0.43,9.3-4.19,14.13-4.55c2.84-0.21,5.2-12.44,7.67-22.44H1250c2.93,8.31,5.9,17.58,8.56,17.46
	c4.78-0.23,9.4-5.98,14.24-6.14c4.79-0.16,9.48-7.56,14.32-7.65c1.86-0.03,3.71-1.68,5.57-3.68h27.53
	c3.29,10.98,6.52,29.84,9.95,29.92c4.78,0.11,9.97-25.89,14.81-25.71c4.78,0.18,8.82,27.29,13.66,27.53
	c4.78,0.24,9.54-3.26,14.38-2.95c4.78,0.3,9.21,5.43,14.04,5.8c4.78,0.36,10.9-27.45,15.73-27.01c4.78,0.43,8.72,15.21,13.55,15.71
	c3.13,0.33,7.24-13.76,11.06-23.29h9.01c2.56,12.44,4.45,34.19,7.91,34.64c4.76,0.61,9.55-0.42,14.36,0.26
	c4.76,0.68,12.09-27.74,16.9-27c4.75,0.74,8.92,8.56,13.72,9.36c4.75,0.79,7.75,18.48,12.55,19.34c4.74,0.85,10.16-4.79,14.95-3.87
	c4.74,0.9,8.73,7.9,13.51,8.87c4.73,0.96,9.03,4.84,13.81,5.87c4.72,1.01,14.15-33.45,18.92-32.37c4.71,1.06,5.98,27.72,10.74,28.85
	c4.7,1.12,8.76,6.61,13.52,7.79c4.71,1.17,10.32-3.75,15.07-2.52c4.7,1.22,13.41-22.42,18.15-21.14c4.69,1.27,7.84,12.7,12.57,14.03
	c4.68,1.31,3.79,35.25,8.51,36.63c4.67,1.36,13.25-19.57,17.97-18.15c4.67,1.41,9.17,3.86,13.88,5.33
	c4.66,1.46,6.08,19.91,10.78,21.42c4.65,1.49,16.23-32.42,20.92-30.86c4.64,1.54,4.47,27.37,9.15,28.97
	c4.63,1.58,7.34,12.35,12.01,13.99c4.62,1.62,11.83-9.01,16.49-7.33c4.62,1.67,8.44,6.98,13.1,8.7c4.61,1.7,14.41-19.64,19.06-17.88
	c4.59,1.74,3.51,28.56,8.15,30.36c4.59,1.78,15.39-22.82,20.02-20.98c4.58,1.82,2.47,31.89,7.09,33.76
	c4.57,1.85,13.18-12.77,17.79-10.86c4.56,1.88,4.71,21.62,9.31,23.56c4.56,1.92,15.6-21.62,20.2-19.64
	c4.54,1.96,5.12,19.52,9.7,21.53c4.54,1.99,4.73,20.45,9.31,22.49c3.99,1.78,15.64-24.94,21.48-29.91
	c5.84,4.97,17.49,31.69,21.48,29.91c4.58-2.04,4.77-20.5,9.31-22.49c4.58-2.01,5.16-19.57,9.7-21.53
	c4.6-1.98,15.64,21.56,20.2,19.64c4.6-1.94,4.75-21.68,9.31-23.56c4.61-1.91,13.22,12.71,17.79,10.86
	c4.62-1.87,2.51-31.94,7.09-33.76c4.63-1.84,15.43,22.76,20.02,20.98c4.64-1.8,3.56-28.62,8.15-30.36
	c4.65-1.76,14.45,19.58,19.06,17.88c4.66-1.72,8.48-7.03,13.1-8.7c4.66-1.68,11.87,8.95,16.49,7.33
	c4.67-1.64,7.38-12.41,12.01-13.99c4.68-1.6,4.51-27.43,9.15-28.97c4.69-1.56,16.27,32.35,20.92,30.86
	c4.7-1.51,6.12-19.96,10.78-21.42c4.71-1.47,9.21-3.92,13.88-5.33c4.72-1.42,13.3,19.51,17.97,18.15
	c4.72-1.38,3.83-35.32,8.51-36.63c4.73-1.33,7.88-12.76,12.57-14.03c4.74-1.28,13.45,22.36,18.15,21.14
	c4.75-1.23,10.36,3.69,15.07,2.52c4.76-1.18,8.82-6.67,13.52-7.79c4.76-1.13,6.03-27.79,10.74-28.85
	c4.77-1.08,14.2,33.38,18.92,32.37c4.78-1.03,9.08-4.91,13.81-5.87c4.78-0.97,8.77-7.97,13.51-8.87c4.79-0.92,10.21,4.72,14.95,3.87
	c4.8-0.86,7.8-18.55,12.55-19.34c4.8-0.8,8.97-8.62,13.72-9.36c4.81-0.74,12.14,27.68,16.9,27c4.81-0.68,9.6,0.35,14.36-0.26
	c3.46-0.45,5.35-22.2,7.91-34.64h9.01c3.82,9.53,7.93,23.62,11.06,23.29c4.83-0.5,8.77-15.28,13.55-15.71
	c4.83-0.44,10.95,27.37,15.73,27.01c4.83-0.37,9.26-5.5,14.04-5.8c4.84-0.31,9.6,3.19,14.38,2.95c4.84-0.24,8.88-27.35,13.66-27.53
	c4.84-0.18,10.03,25.82,14.81,25.71c3.43-0.08,6.66-18.94,9.95-29.92h27.53c1.86,2,3.71,3.65,5.57,3.68
	c4.84,0.09,9.53,7.49,14.32,7.65c4.84,0.16,9.46,5.91,14.24,6.14c2.66,0.12,5.63-9.15,8.56-17.46h12.32
	c2.47,10,4.83,22.23,7.67,22.44c4.83,0.36,9.35,4.12,14.13,4.55c4.83,0.43,9.15,6.46,13.93,6.95c4.82,0.49,10.02-7.48,14.79-6.93
	c4.27,0.49,10.22-22.26,14.84-27h2.92c4.01,5.16,6.29,31.64,10.63,32.26c4.81,0.68,11.62-21.88,16.38-21.14
	c3.72,0.58,8.34-7.71,12.45-11.12h5.24c3.72,5.07,6.22,22.15,10.34,22.89c4.79,0.86,10.22-3.98,14.96-3.07
	c4.78,0.92,6.58,26.72,11.31,27.68c4.77,0.97,11.04-10.82,15.77-9.8c4.77,1.02,9.43,2.45,14.16,3.51
	c4.76,1.07,10.66-6.37,15.38-5.26c4.75,1.12,6.43,23.3,11.15,24.46c4.75,1.16,10.93-7.9,15.64-6.7c4.74,1.2,7.19,16.7,11.89,17.94
	c4.73,1.24,9.95-1.24,14.65,0.03c4.72,1.28,12.1-14.02,16.79-12.72c4.72,1.31,10.11-1.49,14.8-0.16c4.71,1.34,10.7-4.73,15.38-3.38
	c4.71,1.36,4.04,33.59,8.73,34.96c4.7,1.38,17.1-41.05,21.78-39.66c4.7,1.4,6.72,17.98,11.4,19.38c4.7,1.41,10.54-3.54,15.22-2.13
	c4.7,1.42,8.87,5.72,13.55,7.14c4.69,1.42,3.27,36.78,7.96,38.19c4.69,1.42,14.91-27.94,19.6-26.53c4.69,1.41,10.16-1.59,14.84-0.19
	c4.7,1.4,6.6,18.51,11.29,19.89c4.7,1.39,12.54-15.31,17.23-13.95c4.7,1.37,6.48,19.57,11.18,20.92c4.7,1.35,8.42,8.62,13.13,9.94
	s11.44-9.61,16.15-8.32c4.71,1.29,6.66,19.94,11.38,21.19s11.07-7.8,15.8-6.6c4.72,1.21,11.07-8.59,15.8-7.43
	c4.73,1.16,5.41,30.9,10.16,32.02c4.73,1.11,10.64-5.47,15.39-4.41c4.74,1.06,12.86-24.06,17.61-23.06s9.28,2.98,14.05,3.91
	c4.75,0.93,8.14,13.56,12.92,14.43c4.76,0.87,7.13,25.7,11.92,26.5c4.77,0.8,10.7-8.77,15.49-8.04
	c4.77,0.72,11.14-16.64,15.95-15.99c4.78,0.65,10.04-6.07,14.85-5.5c4.78,0.57,9.39,2.21,14.2,2.71
	c4.78,0.49,8.65,17.16,13.47,17.57c4.79,0.4,9.98-7.67,14.81-7.35c4.79,0.32,9.31,9.27,14.14,9.5c4.79,0.23,9.83-8.69,14.66-8.55
	c4.79,0.14,9.65-12.61,14.49-12.55c4.79,0.05,9.59,38.62,14.43,38.58c4.79-0.04,9.31-34.42,14.15-34.55
	c4.79-0.13,9.42-1.8,14.26-2.02c4.79-0.22,10.56,28.71,15.4,28.4c4.78-0.31,9.34-9.3,14.17-9.71c4.78-0.4,9.16-9.07,13.98-9.56
	c4.77-0.49,10.98,18.65,15.8,18.07c4.77-0.58,10,1.68,14.82,1.01c4.76-0.67,7.33-27.22,12.14-27.98
	c4.75-0.75,10.91,12.09,15.72,11.24c4.74-0.84,7.49-19.89,12.28-20.83c4.73-0.92,12.98,26.37,17.77,25.35
	c4.72-1.01,6.44-25.52,11.21-26.63c4.71-1.09,7.8-13,12.56-14.18c4.7-1.17,12,14.88,16.75,13.62c4.69-1.25,9.24-3.61,13.97-4.95
	c4.67-1.32,6.67-17.87,11.39-19.28c4.66-1.4,9.79,0.25,14.5-1.24c4.65-1.47,11.34,7.78,16.04,6.21c4.63-1.54,12.16,10.72,16.84,9.09
	c4.62-1.61,3.4-30.85,8.07-32.55c4.6-1.68,9.27-2.67,13.92-4.44c4.59-1.74,12.9,12.73,17.54,10.89c4.58-1.81,7.9-8.98,12.52-10.88
	c4.56-1.87,6.77-13.11,11.38-15.06c4.55-1.93,15.46,20.79,20.05,18.78c4.53-1.99,6.32-14.69,10.9-16.76
	c4.52-2.04,8.38-6.61,12.95-8.74c4.5-2.1,12.51,7.99,17.06,5.81c4.49-2.15,4.37-20.43,8.91-22.66c4.47-2.2,13.91,12.1,18.42,9.82
	c4.46-2.25,10.55,0.41,15.05-1.92c4.44-2.3-1.76-38.85,2.73-41.22c4.43-2.35,21.63,35.17,26.1,32.75
	c4.41-2.39-1.17-35.71,3.29-38.18c4.4-2.44,9.47-2.82,13.91-5.33c1.11-0.63,1.89-2.25,2.49-4.35H3796.01z"/>
</svg>
